<?xml version="1.0" encoding="UTF-8" standalone="no"?>
<!-- Created with Inkscape (http://www.inkscape.org/) -->

<svg
   xmlns:dc="http://purl.org/dc/elements/1.1/"
   xmlns:cc="http://creativecommons.org/ns#"
   xmlns:rdf="http://www.w3.org/1999/02/22-rdf-syntax-ns#"
   xmlns:svg="http://www.w3.org/2000/svg"
   xmlns="http://www.w3.org/2000/svg"
   xmlns:sodipodi="http://sodipodi.sourceforge.net/DTD/sodipodi-0.dtd"
   xmlns:inkscape="http://www.inkscape.org/namespaces/inkscape"
   id="svg2"
   version="1.1"
   inkscape:version="0.91 r13725"
   xml:space="preserve"
   width="576.25"
   height="431.25"
   viewBox="0 0 576.25 431.25"
   sodipodi:docname="fig_path_norm.svg"><metadata
     id="metadata8"><rdf:RDF><cc:Work
         rdf:about=""><dc:format>image/svg+xml</dc:format><dc:type
           rdf:resource="http://purl.org/dc/dcmitype/StillImage" /><dc:title></dc:title></cc:Work></rdf:RDF></metadata><defs
     id="defs6"><clipPath
       clipPathUnits="userSpaceOnUse"
       id="clipPath18"><path
         d="m 6,2 0,3448 4604,0 L 4610,2 6,2 Z"
         id="path20"
         inkscape:connector-curvature="0" /></clipPath><clipPath
       clipPathUnits="userSpaceOnUse"
       id="clipPath150"><path
         d="m 582,382.199 3571,0 0,2661 -3571,0 0,-2661 z"
         id="path152"
         inkscape:connector-curvature="0" /></clipPath><clipPath
       clipPathUnits="userSpaceOnUse"
       id="clipPath166"><path
         d="m 6,2 0,3448 4604,0 L 4610,2 6,2 Z"
         id="path168"
         inkscape:connector-curvature="0" /></clipPath></defs><sodipodi:namedview
     pagecolor="#ffffff"
     bordercolor="#666666"
     borderopacity="1"
     objecttolerance="10"
     gridtolerance="10"
     guidetolerance="10"
     inkscape:pageopacity="0"
     inkscape:pageshadow="2"
     inkscape:window-width="1280"
     inkscape:window-height="679"
     id="namedview4"
     showgrid="false"
     inkscape:zoom="0.9395381"
     inkscape:cx="269.36601"
     inkscape:cy="250.55857"
     inkscape:window-x="0"
     inkscape:window-y="1"
     inkscape:window-maximized="1"
     inkscape:current-layer="g10" /><g
     id="g10"
     inkscape:groupmode="layer"
     inkscape:label="ink_ext_XXXXXX"
     transform="matrix(1.25,0,0,-1.25,0,431.25)"><path
       inkscape:connector-curvature="0"
       id="path22"
       style="fill:#ffffff;fill-opacity:1;fill-rule:nonzero;stroke:none"
       d="m 0.6,0.2 460.8,0 0,345.6 -460.8,0 0,-345.6 z" /><path
       inkscape:connector-curvature="0"
       id="path24"
       style="fill:#ffffff;fill-opacity:1;fill-rule:nonzero;stroke:none"
       d="m 58.2,38.216 357.12,0 0,266.112 -357.12,0 0,-266.112 z" /><path
       inkscape:connector-curvature="0"
       id="path26"
       style="fill:#000000;fill-opacity:1;fill-rule:nonzero;stroke:none"
       d="m 106.915,38.216 0,-3.5" /><path
       inkscape:connector-curvature="0"
       id="path28"
       style="fill:none;stroke:#000000;stroke-width:0.80000001;stroke-linecap:butt;stroke-linejoin:round;stroke-miterlimit:10;stroke-dasharray:none;stroke-opacity:1"
       d="m 106.915,38.216 0,-3.5" /><g
       id="g30"
       style=""><text
         id="text32"
         style="font-variant:normal;font-weight:normal;font-size:10px;font-family:Arial;-inkscape-font-specification:Arial;writing-mode:lr-tb;fill:#000000;fill-opacity:1;fill-rule:nonzero;stroke:none"
         transform="matrix(1,0,0,-1,99.5473,23.6223)"><tspan
           id="tspan34"
           sodipodi:role="line"
           y="0"
           x="0 8.3789015">−2</tspan></text>
</g><path
       inkscape:connector-curvature="0"
       id="path36"
       style="fill:#000000;fill-opacity:1;fill-rule:nonzero;stroke:none"
       d="m 158.385,38.216 0,-3.5" /><path
       inkscape:connector-curvature="0"
       id="path38"
       style="fill:none;stroke:#000000;stroke-width:0.80000001;stroke-linecap:butt;stroke-linejoin:round;stroke-miterlimit:10;stroke-dasharray:none;stroke-opacity:1"
       d="m 158.385,38.216 0,-3.5" /><g
       id="g40"
       style=""><text
         id="text42"
         style="font-variant:normal;font-weight:normal;font-size:10px;font-family:Arial;-inkscape-font-specification:Arial;writing-mode:lr-tb;fill:#000000;fill-opacity:1;fill-rule:nonzero;stroke:none"
         transform="matrix(1,0,0,-1,151.018,23.6223)"><tspan
           id="tspan44"
           sodipodi:role="line"
           y="0"
           x="0 8.3789015">−1</tspan></text>
</g><path
       inkscape:connector-curvature="0"
       id="path46"
       style="fill:#000000;fill-opacity:1;fill-rule:nonzero;stroke:none"
       d="m 209.856,38.216 0,-3.5" /><path
       inkscape:connector-curvature="0"
       id="path48"
       style="fill:none;stroke:#000000;stroke-width:0.80000001;stroke-linecap:butt;stroke-linejoin:round;stroke-miterlimit:10;stroke-dasharray:none;stroke-opacity:1"
       d="m 209.856,38.216 0,-3.5" /><g
       id="g50"
       style=""><text
         id="text52"
         style="font-variant:normal;font-weight:normal;font-size:10px;font-family:Arial;-inkscape-font-specification:Arial;writing-mode:lr-tb;fill:#000000;fill-opacity:1;fill-rule:nonzero;stroke:none"
         transform="matrix(1,0,0,-1,206.676,23.6223)"><tspan
           id="tspan54"
           y="0"
           x="0"
           style="">0</tspan></text>
</g><path
       inkscape:connector-curvature="0"
       id="path56"
       style="fill:#000000;fill-opacity:1;fill-rule:nonzero;stroke:none"
       d="m 261.327,38.216 0,-3.5" /><path
       inkscape:connector-curvature="0"
       id="path58"
       style="fill:none;stroke:#000000;stroke-width:0.80000001;stroke-linecap:butt;stroke-linejoin:round;stroke-miterlimit:10;stroke-dasharray:none;stroke-opacity:1"
       d="m 261.327,38.216 0,-3.5" /><g
       id="g60"
       style=""><text
         id="text62"
         style="font-variant:normal;font-weight:normal;font-size:10px;font-family:Arial;-inkscape-font-specification:Arial;writing-mode:lr-tb;fill:#000000;fill-opacity:1;fill-rule:nonzero;stroke:none"
         transform="matrix(1,0,0,-1,258.147,23.6223)"><tspan
           id="tspan64"
           y="0"
           x="0"
           style="">1</tspan></text>
</g><path
       inkscape:connector-curvature="0"
       id="path66"
       style="fill:#000000;fill-opacity:1;fill-rule:nonzero;stroke:none"
       d="m 312.797,38.216 0,-3.5" /><path
       inkscape:connector-curvature="0"
       id="path68"
       style="fill:none;stroke:#000000;stroke-width:0.80000001;stroke-linecap:butt;stroke-linejoin:round;stroke-miterlimit:10;stroke-dasharray:none;stroke-opacity:1"
       d="m 312.797,38.216 0,-3.5" /><g
       id="g70"
       style=""><text
         id="text72"
         style="font-variant:normal;font-weight:normal;font-size:10px;font-family:Arial;-inkscape-font-specification:Arial;writing-mode:lr-tb;fill:#000000;fill-opacity:1;fill-rule:nonzero;stroke:none"
         transform="matrix(1,0,0,-1,309.618,23.6223)"><tspan
           id="tspan74"
           y="0"
           x="0"
           style="">2</tspan></text>
</g><path
       inkscape:connector-curvature="0"
       id="path76"
       style="fill:#000000;fill-opacity:1;fill-rule:nonzero;stroke:none"
       d="m 364.268,38.216 0,-3.5" /><path
       inkscape:connector-curvature="0"
       id="path78"
       style="fill:none;stroke:#000000;stroke-width:0.80000001;stroke-linecap:butt;stroke-linejoin:round;stroke-miterlimit:10;stroke-dasharray:none;stroke-opacity:1"
       d="m 364.268,38.216 0,-3.5" /><g
       id="g80"
       style=""><text
         id="text82"
         style="font-variant:normal;font-weight:normal;font-size:10px;font-family:Arial;-inkscape-font-specification:Arial;writing-mode:lr-tb;fill:#000000;fill-opacity:1;fill-rule:nonzero;stroke:none"
         transform="matrix(1,0,0,-1,361.088,23.6223)"><tspan
           id="tspan84"
           y="0"
           x="0"
           style="">3</tspan></text>
</g><path
       inkscape:connector-curvature="0"
       id="path86"
       style="fill:#000000;fill-opacity:1;fill-rule:nonzero;stroke:none"
       d="m 415.739,38.216 0,-3.5" /><path
       inkscape:connector-curvature="0"
       id="path88"
       style="fill:none;stroke:#000000;stroke-width:0.80000001;stroke-linecap:butt;stroke-linejoin:round;stroke-miterlimit:10;stroke-dasharray:none;stroke-opacity:1"
       d="m 415.739,38.216 0,-3.5" /><g
       id="g90"
       style=""><text
         id="text92"
         style="font-variant:normal;font-weight:normal;font-size:10px;font-family:Arial;-inkscape-font-specification:Arial;writing-mode:lr-tb;fill:#000000;fill-opacity:1;fill-rule:nonzero;stroke:none"
         transform="matrix(1,0,0,-1,412.559,23.6223)"><tspan
           id="tspan94"
           y="0"
           x="0"
           style="">4</tspan></text>
</g><path
       inkscape:connector-curvature="0"
       id="path96"
       style="fill:#000000;fill-opacity:1;fill-rule:nonzero;stroke:none"
       d="m 58.2,66.8754 -3.5,0" /><path
       inkscape:connector-curvature="0"
       id="path98"
       style="fill:none;stroke:#000000;stroke-width:0.80000001;stroke-linecap:butt;stroke-linejoin:round;stroke-miterlimit:10;stroke-dasharray:none;stroke-opacity:1"
       d="m 58.2,66.8754 -3.5,0" /><g
       id="g100"
       style=""><text
         id="text102"
         style="font-variant:normal;font-weight:normal;font-size:10px;font-family:Arial;-inkscape-font-specification:Arial;writing-mode:lr-tb;fill:#000000;fill-opacity:1;fill-rule:nonzero;stroke:none"
         transform="matrix(1,0,0,-1,36.4656,63.0785)"><tspan
           id="tspan104"
           sodipodi:role="line"
           y="0"
           x="0 8.3789043">−2</tspan></text>
</g><path
       inkscape:connector-curvature="0"
       id="path106"
       style="fill:#000000;fill-opacity:1;fill-rule:nonzero;stroke:none"
       d="m 58.2,118.346 -3.5,0" /><path
       inkscape:connector-curvature="0"
       id="path108"
       style="fill:none;stroke:#000000;stroke-width:0.80000001;stroke-linecap:butt;stroke-linejoin:round;stroke-miterlimit:10;stroke-dasharray:none;stroke-opacity:1"
       d="m 58.2,118.346 -3.5,0" /><g
       id="g110"
       style=""><text
         id="text112"
         style="font-variant:normal;font-weight:normal;font-size:10px;font-family:Arial;-inkscape-font-specification:Arial;writing-mode:lr-tb;fill:#000000;fill-opacity:1;fill-rule:nonzero;stroke:none"
         transform="matrix(1,0,0,-1,36.4656,114.549)"><tspan
           id="tspan114"
           sodipodi:role="line"
           y="0"
           x="0 8.3789043">−1</tspan></text>
</g><path
       inkscape:connector-curvature="0"
       id="path116"
       style="fill:#000000;fill-opacity:1;fill-rule:nonzero;stroke:none"
       d="m 58.2,169.817 -3.5,0" /><path
       inkscape:connector-curvature="0"
       id="path118"
       style="fill:none;stroke:#000000;stroke-width:0.80000001;stroke-linecap:butt;stroke-linejoin:round;stroke-miterlimit:10;stroke-dasharray:none;stroke-opacity:1"
       d="m 58.2,169.817 -3.5,0" /><g
       id="g120"
       style=""><text
         id="text122"
         style="font-variant:normal;font-weight:normal;font-size:10px;font-family:Arial;-inkscape-font-specification:Arial;writing-mode:lr-tb;fill:#000000;fill-opacity:1;fill-rule:nonzero;stroke:none"
         transform="matrix(1,0,0,-1,44.8406,166.02)"><tspan
           id="tspan124"
           y="0"
           x="0"
           style="">0</tspan></text>
</g><path
       inkscape:connector-curvature="0"
       id="path126"
       style="fill:#000000;fill-opacity:1;fill-rule:nonzero;stroke:none"
       d="m 58.2,221.287 -3.5,0" /><path
       inkscape:connector-curvature="0"
       id="path128"
       style="fill:none;stroke:#000000;stroke-width:0.80000001;stroke-linecap:butt;stroke-linejoin:round;stroke-miterlimit:10;stroke-dasharray:none;stroke-opacity:1"
       d="m 58.2,221.287 -3.5,0" /><g
       id="g130"
       style=""><text
         id="text132"
         style="font-variant:normal;font-weight:normal;font-size:10px;font-family:Arial;-inkscape-font-specification:Arial;writing-mode:lr-tb;fill:#000000;fill-opacity:1;fill-rule:nonzero;stroke:none"
         transform="matrix(1,0,0,-1,44.8406,217.491)"><tspan
           id="tspan134"
           y="0"
           x="0"
           style="">1</tspan></text>
</g><path
       inkscape:connector-curvature="0"
       id="path136"
       style="fill:#000000;fill-opacity:1;fill-rule:nonzero;stroke:none"
       d="m 58.2,272.758 -3.5,0" /><path
       inkscape:connector-curvature="0"
       id="path138"
       style="fill:none;stroke:#000000;stroke-width:0.80000001;stroke-linecap:butt;stroke-linejoin:round;stroke-miterlimit:10;stroke-dasharray:none;stroke-opacity:1"
       d="m 58.2,272.758 -3.5,0" /><g
       id="g140"
       style=""><text
         id="text142"
         style="font-variant:normal;font-weight:normal;font-size:10px;font-family:Arial;-inkscape-font-specification:Arial;writing-mode:lr-tb;fill:#000000;fill-opacity:1;fill-rule:nonzero;stroke:none"
         transform="matrix(1,0,0,-1,44.8406,268.961)"><tspan
           id="tspan144"
           y="0"
           x="0"
           style="">2</tspan></text>
</g><path
       inkscape:connector-curvature="0"
       id="path154"
       style="fill:none;stroke:#1f77b4;stroke-width:1.5;stroke-linecap:butt;stroke-linejoin:round;stroke-miterlimit:10;stroke-dasharray:5.55, 2.4;stroke-dashoffset:0;stroke-opacity:1"
       d="m 284.46,222.752 -5.68,4.948 -3.497,2.661 -2.591,1.858 -2.017,1.423 -1.103,0.789 -1.364,1.011 -0.741,0.585 -0.896,0.773 -0.665,0.671 -0.461,0.59 -0.278,0.519 -0.11,0.458 0.013,0.275 0.14,0.368 0.277,0.319 0.405,0.27 0.526,0.222 0.639,0.173 0.749,0.123 0.851,0.071 0.623,0.017 1.013,-0.022 1.104,-0.081 1.192,-0.145 1.274,-0.212 1.355,-0.284 1.43,-0.361 1.503,-0.442 1.04,-0.343 1.616,-0.591 1.68,-0.69 1.738,-0.795 1.795,-0.908 1.846,-1.031 1.894,-1.163 1.937,-1.307 1.314,-0.957 1.998,-1.576 2.029,-1.761 2.051,-1.966 2.068,-2.197 2.076,-2.462 2.072,-2.774 2.057,-3.149 1.352,-2.354 1.981,-4.019 1.885,-4.84 1.698,-6.255 1.093,-10.792" /><path
       inkscape:connector-curvature="0"
       id="path156"
       style="fill:none;stroke:#d62728;stroke-width:1.5;stroke-linecap:butt;stroke-linejoin:round;stroke-miterlimit:10;stroke-dasharray:5.55, 2.39999999999999991;stroke-dashoffset:0;stroke-opacity:1"
       d="m 349.877,271.193 7.525,-31.05 3.623,-22.738 1.179,-20.349 -1.334,-22.642 -3.213,-17.715 -5.015,-16.729 -6.731,-15.703 -8.368,-14.592 -9.923,-13.3664 -13.837,-14.2348 -10.316,-8.2761 -14.026,-8.8344 -15.166,-6.9899 -16.167,-4.9535 -16.999,-2.7078 -21.209,0.0418 -18.046,3.0762 -18.024,6.1308 -17.555,9.4571 -16.498,13.0148 -14.688,16.693 -13.928,24.7122 -7.34,23.88 -2.505,25.754 2.801,26.09 7.928,24.665 12.173,21.654 18.262,20.555 16.496,12.212 16.272,8.011 15.116,4.417 13.384,1.556 11.372,-0.581 10.891,-2.621 6.85,-3.171 4.97,-3.622 3.255,-3.748 1.716,-3.621 0.35,-3.297 -1.161,-3.318 -2.116,-2.097 -3.032,-1.393 -3.857,-0.616 -4.624,0.225 -5.394,1.131 -7.639,2.663 -7.749,3.463 -10.184,4.905 -19.613,7.712" /><path
       inkscape:connector-curvature="0"
       id="path158"
       style="fill:none;stroke:#1f77b4;stroke-width:1.5;stroke-linecap:square;stroke-linejoin:round;stroke-miterlimit:10;stroke-dasharray:none;stroke-opacity:1"
       d="m 229.599,155.239 -19.572,1.818 -11.462,0.301 -8.32,-0.015 -6.441,-0.062 -3.54,-0.012 -4.43,0.062 -2.462,0.108 -3.075,0.272 -2.433,0.407 -1.875,0.544 -1.379,0.676 -0.933,0.802 -0.391,0.601 -0.265,0.995 0.1,1.097 0.446,1.19 0.775,1.272 1.091,1.343 1.397,1.401 1.696,1.448 1.292,0.986 2.178,1.498 2.463,1.511 2.744,1.51 3.022,1.495 3.301,1.463 3.579,1.418 3.857,1.355 2.727,0.861 4.324,1.211 4.607,1.1 4.894,0.968 5.186,0.812 5.481,0.633 5.784,0.425 6.095,0.187 4.24,-0.024 6.637,-0.291 6.98,-0.635 7.342,-1.034 7.73,-1.5 8.15,-2.05 8.619,-2.713 9.155,-3.533 6.452,-2.922 10.325,-5.491 11.372,-7.375 13.134,-10.657 18.77,-21.186" /><path
       inkscape:connector-curvature="0"
       id="path160"
       style="fill:none;stroke:#d62728;stroke-width:1.5;stroke-linecap:square;stroke-linejoin:round;stroke-miterlimit:10;stroke-dasharray:none;stroke-opacity:1"
       d="m 187.327,225.604 14.152,0.28 10.183,-0.612 8.916,-1.44 9.666,-2.747 7.356,-3.088 6.755,-3.772 6.148,-4.417 5.51,-5.018 4.831,-5.573 4.832,-7.35 2.591,-5.256 2.478,-6.913 1.569,-7.231 0.594,-7.468 -0.458,-7.613 -2.05,-9.17 -3.061,-7.512 -4.379,-7.209 -5.773,-6.687 -7.211,-5.89 -8.629,-4.754 -12.024,-3.657 -11.034,-0.886 -11.38,1.385 -11.018,3.712 -9.91,5.793 -8.2,7.341 -7.141,9.869 -3.702,8.307 -1.906,7.806 -0.462,6.962 0.61,5.939 1.341,4.864 2.177,4.46 2.029,2.659 2.043,1.802 1.933,1.05 1.731,0.395 1.459,-0.165 1.325,-0.82 0.704,-1.116 0.312,-1.446 -0.104,-1.727 -0.54,-1.978 -1.006,-2.225 -1.884,-3.05 -2.241,-3.02 -3.097,-3.935 -5.216,-7.745" /><g
       id="g162"
       transform="scale(0.1,0.1)"><g
         clip-path="url(#clipPath166)"
         id="g164"><path
           inkscape:connector-curvature="0"
           id="path170"
           style="fill:none;stroke:#000000;stroke-width:8;stroke-linecap:square;stroke-linejoin:miter;stroke-miterlimit:10;stroke-dasharray:none;stroke-opacity:1"
           d="m 582,382.16 0,2661.12" /><path
           inkscape:connector-curvature="0"
           id="path172"
           style="fill:none;stroke:#000000;stroke-width:8;stroke-linecap:square;stroke-linejoin:miter;stroke-miterlimit:10;stroke-dasharray:none;stroke-opacity:1"
           d="m 4153.2,382.16 0,2661.12" /><path
           inkscape:connector-curvature="0"
           id="path174"
           style="fill:none;stroke:#000000;stroke-width:8;stroke-linecap:square;stroke-linejoin:miter;stroke-miterlimit:10;stroke-dasharray:none;stroke-opacity:1"
           d="m 582,382.16 3571.2,0" /><path
           inkscape:connector-curvature="0"
           id="path176"
           style="fill:none;stroke:#000000;stroke-width:8;stroke-linecap:square;stroke-linejoin:miter;stroke-miterlimit:10;stroke-dasharray:none;stroke-opacity:1"
           d="m 582,3043.28 3571.2,0" /></g></g><g
       id="g4217"
       transform="matrix(-1,0,0,1,416.17715,0)"><path
         inkscape:connector-curvature="0"
         id="path4389"
         d="m 118.97468,321.65656 47.16497,0"
         style="fill:none;fill-rule:evenodd;stroke:#000000;stroke-width:1.5;stroke-linecap:butt;stroke-linejoin:miter;stroke-miterlimit:4;stroke-dasharray:none;stroke-opacity:1" /><path
         style="fill:none;fill-rule:evenodd;stroke:#000000;stroke-width:1.5;stroke-linecap:butt;stroke-linejoin:miter;stroke-miterlimit:4;stroke-dasharray:6, 3;stroke-dashoffset:0;stroke-opacity:1"
         d="m 250.0375,320.63074 47.16497,0"
         id="path4391"
         inkscape:connector-curvature="0" /></g><text
       xml:space="preserve"
       style="font-style:normal;font-variant:normal;font-weight:normal;font-stretch:normal;font-size:24px;line-height:125%;font-family:'Latin Modern Roman';-inkscape-font-specification:'Latin Modern Roman, Normal';text-align:start;letter-spacing:0px;word-spacing:0px;writing-mode:lr-tb;text-anchor:start;fill:#000000;fill-opacity:1;stroke:none;stroke-width:1px;stroke-linecap:butt;stroke-linejoin:miter;stroke-opacity:1"
       x="174.63783"
       y="-317.40747"
       id="text4393"
       sodipodi:linespacing="125%"
       transform="scale(1,-1)"><tspan
         sodipodi:role="line"
         id="tspan4395"
         x="174.63783"
         y="-317.40747"
         style="font-size:14px">Initial</tspan></text>
<text
       transform="scale(1,-1)"
       sodipodi:linespacing="125%"
       id="text4397"
       y="-317.40747"
       x="306.23776"
       style="font-style:normal;font-variant:normal;font-weight:normal;font-stretch:normal;font-size:24px;line-height:125%;font-family:'Latin Modern Roman';-inkscape-font-specification:'Latin Modern Roman, Normal';text-align:start;letter-spacing:0px;word-spacing:0px;writing-mode:lr-tb;text-anchor:start;fill:#000000;fill-opacity:1;stroke:none;stroke-width:1px;stroke-linecap:butt;stroke-linejoin:miter;stroke-opacity:1"
       xml:space="preserve"><tspan
         style="font-size:14px"
         y="-317.40747"
         x="306.23776"
         id="tspan4399"
         sodipodi:role="line">Normalized</tspan></text>
</g></svg>